<?xml version="1.0" encoding="UTF-8"?>
<svg id="Calque_2" data-name="Calque 2" xmlns="http://www.w3.org/2000/svg" viewBox="0 0 841.89 595.28">
  <defs>
    <style>
      .cls-1 {
        fill: #1b1b1b;
      }

      .cls-2 {
        fill: #8dc63f;
      }
    </style>
  </defs>
  <path class="cls-2" d="m280.36,319.42c2.5-6.73,3.88-14.01,3.88-21.61,0-23.76-13.39-44.39-33.03-54.77l-20.02,50.56,49.16,25.82Z"/>
  <g>
    <path class="cls-1" d="m332.55,266.65v62.78h-11.63v-62.78h11.63Zm41.53,0l-27.66,29.28,31.35,33.5h-16.11l-25.6-29.33v-7.55l23.8-25.9h14.22Z"/>
    <path class="cls-1" d="m381.37,329.43l26.65-62.78h12.51l27.22,62.78h-12.51l-7.9-17.12h-20.11l4-10.1h13.04l-10.27-23.58-20.68,50.8h-11.94Z"/>
    <path class="cls-1" d="m467.07,266.65v62.78h-11.64v-62.78h11.64Z"/>
    <path class="cls-1" d="m480.24,329.43v-62.78h12.07l21.29,47.63,20.86-47.63h11.63v62.78h-10.75v-43.73l-17.04,43.73h-9.92l-17.39-43.73v43.73h-10.76Z"/>
    <path class="cls-1" d="m553.78,329.43l26.65-62.78h12.51l27.22,62.78h-12.51l-7.9-17.12h-20.11l4-10.1h13.04l-10.27-23.58-20.68,50.8h-11.94Z"/>
    <path class="cls-1" d="m623.76,329.43v-62.78h11.63l34.9,44.87v-44.87h11.19v62.78h-11.63l-34.9-45.83v45.83h-11.2Z"/>
  </g>
  <g>
    <path class="cls-1" d="m160.4,297.81c0,27.73,18.23,51.19,43.36,59.09l-34.59-90.85c-5.56,9.29-8.77,20.15-8.77,31.77Z"/>
    <path class="cls-1" d="m209.35,294.92l22.61-58.29c-3.14-.49-6.36-.75-9.64-.75-15.47,0-24.69,3.82-35.54,13.19h0l42,110.32c15.71-1.63,29.68-9.14,39.67-20.29l-53.9-30.54-5.2-13.64Z"/>
  </g>
</svg>